<?xml version="1.0" encoding="iso-8859-1"?>
<!-- Uploaded to: SVG Repo, www.svgrepo.com, Generator: SVG Repo Mixer Tools -->
<svg style="fill:#0b5046;" height="800px" width="800px" version="1.1" id="Layer_1" xmlns="http://www.w3.org/2000/svg" xmlns:xlink="http://www.w3.org/1999/xlink" 
	 viewBox="0 0 512 512" xml:space="preserve">
<g>
	<g>
		<path d="M488.727,54.3c-12.853,0-23.273,10.42-23.273,23.273v7.758h-224.97c-10.128,0-18.721,6.482-21.92,15.515H116.364
			c-12.853,0-23.273,10.42-23.273,23.273v23.273H46.545v-23.273c0-12.853-10.42-23.273-23.273-23.273
			C10.42,100.845,0,111.265,0,124.118v93.091c0,12.853,10.42,23.273,23.273,23.273c12.853,0,23.273-10.42,23.273-23.273v-23.273
			h46.545v23.273c0,12.853,10.42,23.273,23.273,23.273h94.909l-85.009,184.187c-5.387,11.67-0.292,25.498,11.377,30.883
			c3.159,1.457,6.474,2.149,9.737,2.149c8.797,0,17.217-5.013,21.146-13.526l48.688-105.489v95.736
			c0,12.853,10.42,23.273,23.273,23.273c12.853,0,23.273-10.42,23.273-23.273v-95.736l48.688,105.489
			c3.928,8.512,12.347,13.526,21.146,13.526c3.264,0,6.58-0.69,9.737-2.149c11.669-5.387,16.764-19.212,11.377-30.883
			l-77.849-168.671h188.598v7.758c0,12.853,10.42,23.273,23.273,23.273c12.853,0,23.273-10.42,23.273-23.273v-31.03V108.603v-31.03
			C512,64.72,501.58,54.3,488.727,54.3z M217.212,193.936h-77.576v-46.545h77.576V193.936z M465.455,209.451H263.758v-77.576
			h201.697V209.451z"/>
	</g>
</g>
</svg>